<svg width="16" height="16" viewBox="0 0 16 16" fill="none" xmlns="http://www.w3.org/2000/svg">
<path d="M3.12157 12.8804V7.36302L8.52969 1.9549H1.56079C0.702353 1.9549 0 2.65725 0 3.51568V14.4412C0 15.2996 0.702353 16.002 1.56079 16.002H12.4863C13.3447 16.002 14.0471 15.2996 14.0471 14.4412V7.47227L8.63895 12.8804H3.12157Z" fill="white"/>
<path d="M4.68237 11.3196H7.99124L13.6101 5.70077L10.3012 2.39191L4.68237 8.01073V11.3196Z" fill="white"/>
<path d="M15.5376 1.55688L14.4372 0.45653C13.8285 -0.152177 12.8374 -0.152177 12.2287 0.45653L11.4015 1.28375L14.7104 4.59261L15.5376 3.76539C16.1541 3.15669 16.1541 2.16559 15.5376 1.55688Z" fill="white"/>
</svg>
